<mxfile host="65bd71144e">
    <diagram id="pnjiZHjFPhyeoTBGaYTX" name="Page-1">
        <mxGraphModel dx="674" dy="477" grid="1" gridSize="10" guides="1" tooltips="1" connect="1" arrows="1" fold="1" page="1" pageScale="1" pageWidth="827" pageHeight="1169" math="0" shadow="0">
            <root>
                <mxCell id="0"/>
                <mxCell id="1" parent="0"/>
                <mxCell id="2" value="" style="shape=umlLifeline;participant=umlActor;perimeter=lifelinePerimeter;whiteSpace=wrap;html=1;container=1;collapsible=0;recursiveResize=0;verticalAlign=top;spacingTop=36;outlineConnect=0;" vertex="1" parent="1">
                    <mxGeometry x="110" y="60" width="20" height="380" as="geometry"/>
                </mxCell>
                <mxCell id="3" value="NLP Service" style="shape=umlLifeline;perimeter=lifelinePerimeter;whiteSpace=wrap;html=1;container=1;collapsible=0;recursiveResize=0;outlineConnect=0;" vertex="1" parent="1">
                    <mxGeometry x="200" y="60" width="100" height="380" as="geometry"/>
                </mxCell>
                <mxCell id="6" value="" style="html=1;points=[];perimeter=orthogonalPerimeter;" vertex="1" parent="3">
                    <mxGeometry x="45" y="70" width="10" height="60" as="geometry"/>
                </mxCell>
                <mxCell id="16" value="" style="html=1;points=[];perimeter=orthogonalPerimeter;" vertex="1" parent="3">
                    <mxGeometry x="45" y="240" width="10" height="40" as="geometry"/>
                </mxCell>
                <mxCell id="17" value="" style="html=1;points=[];perimeter=orthogonalPerimeter;" vertex="1" parent="3">
                    <mxGeometry x="45" y="300" width="10" height="40" as="geometry"/>
                </mxCell>
                <mxCell id="18" value="Get similarity scores &lt;br&gt;using siamese network" style="edgeStyle=orthogonalEdgeStyle;html=1;align=left;spacingLeft=2;endArrow=block;rounded=0;entryX=1;entryY=0;" edge="1" target="17" parent="3">
                    <mxGeometry relative="1" as="geometry">
                        <mxPoint x="50" y="280" as="sourcePoint"/>
                        <Array as="points">
                            <mxPoint x="80" y="280"/>
                        </Array>
                    </mxGeometry>
                </mxCell>
                <mxCell id="4" value="Indexing Service" style="shape=umlLifeline;perimeter=lifelinePerimeter;whiteSpace=wrap;html=1;container=1;collapsible=0;recursiveResize=0;outlineConnect=0;" vertex="1" parent="1">
                    <mxGeometry x="370" y="60" width="100" height="380" as="geometry"/>
                </mxCell>
                <mxCell id="8" value="" style="html=1;points=[];perimeter=orthogonalPerimeter;" vertex="1" parent="4">
                    <mxGeometry x="44" y="120" width="10" height="140" as="geometry"/>
                </mxCell>
                <mxCell id="20" value="Analyze Q" style="html=1;verticalAlign=bottom;endArrow=block;" edge="1" parent="4" source="8" target="8">
                    <mxGeometry x="0.4286" y="-36" width="80" relative="1" as="geometry">
                        <mxPoint x="90" y="130" as="sourcePoint"/>
                        <mxPoint x="170" y="130" as="targetPoint"/>
                        <Array as="points">
                            <mxPoint x="74" y="130"/>
                            <mxPoint x="74" y="160"/>
                        </Array>
                        <mxPoint x="36" y="36" as="offset"/>
                    </mxGeometry>
                </mxCell>
                <mxCell id="21" value="Search index" style="html=1;verticalAlign=bottom;endArrow=block;exitX=1.041;exitY=0.477;exitDx=0;exitDy=0;exitPerimeter=0;" edge="1" parent="4" source="8" target="8">
                    <mxGeometry x="0.2388" y="40" width="80" relative="1" as="geometry">
                        <mxPoint x="70" y="200" as="sourcePoint"/>
                        <mxPoint x="150" y="200" as="targetPoint"/>
                        <Array as="points">
                            <mxPoint x="80" y="187"/>
                            <mxPoint x="80" y="230"/>
                        </Array>
                        <mxPoint as="offset"/>
                    </mxGeometry>
                </mxCell>
                <mxCell id="7" value="Ask question Q" style="html=1;verticalAlign=bottom;endArrow=block;entryX=-0.3;entryY=0.083;entryDx=0;entryDy=0;entryPerimeter=0;" edge="1" parent="1" source="2" target="6">
                    <mxGeometry x="-0.0041" width="80" relative="1" as="geometry">
                        <mxPoint x="150" y="200" as="sourcePoint"/>
                        <mxPoint x="230" y="200" as="targetPoint"/>
                        <mxPoint as="offset"/>
                    </mxGeometry>
                </mxCell>
                <mxCell id="9" value="Reqest topdocs for Q" style="html=1;verticalAlign=bottom;endArrow=block;exitX=1.1;exitY=0.883;exitDx=0;exitDy=0;exitPerimeter=0;" edge="1" parent="1" source="6" target="8">
                    <mxGeometry width="80" relative="1" as="geometry">
                        <mxPoint x="390" y="330" as="sourcePoint"/>
                        <mxPoint x="470" y="330" as="targetPoint"/>
                    </mxGeometry>
                </mxCell>
                <mxCell id="15" value="Return topdocs" style="html=1;verticalAlign=bottom;endArrow=open;dashed=1;endSize=8;exitX=-0.047;exitY=0.9;exitDx=0;exitDy=0;exitPerimeter=0;entryX=1.088;entryY=0.178;entryDx=0;entryDy=0;entryPerimeter=0;" edge="1" parent="1" source="8" target="16">
                    <mxGeometry relative="1" as="geometry">
                        <mxPoint x="370" y="290" as="sourcePoint"/>
                        <mxPoint x="260" y="306" as="targetPoint"/>
                    </mxGeometry>
                </mxCell>
                <mxCell id="19" value="Return best result" style="html=1;verticalAlign=bottom;endArrow=open;dashed=1;endSize=8;exitX=-0.171;exitY=0.869;exitDx=0;exitDy=0;exitPerimeter=0;" edge="1" parent="1" source="17" target="2">
                    <mxGeometry relative="1" as="geometry">
                        <mxPoint x="230" y="390" as="sourcePoint"/>
                        <mxPoint x="150" y="390" as="targetPoint"/>
                    </mxGeometry>
                </mxCell>
            </root>
        </mxGraphModel>
    </diagram>
</mxfile>